<svg width="56" height="28" viewBox="0 0 56 28" fill="none" xmlns="http://www.w3.org/2000/svg">
<g style="mix-blend-mode:hard-light" filter="url(#filter0_d_165_711)">
<path d="M17.0476 18L16.4089 18.7695L16.7844 19.0811L17.261 18.977L17.0476 18ZM29.0952 15.3684L29.3086 16.3454L29.5846 16.2851L29.7882 16.0894L29.0952 15.3684ZM36.7619 8V7H36.3593L36.069 7.27901L36.7619 8ZM51.7071 8.70711C52.0976 8.31658 52.0976 7.68342 51.7071 7.29289L45.3431 0.928932C44.9526 0.538408 44.3195 0.538408 43.9289 0.928932C43.5384 1.31946 43.5384 1.95262 43.9289 2.34315L49.5858 8L43.9289 13.6569C43.5384 14.0474 43.5384 14.6805 43.9289 15.0711C44.3195 15.4616 44.9526 15.4616 45.3431 15.0711L51.7071 8.70711ZM4.36131 8.76947L16.4089 18.7695L17.6863 17.2305L5.63869 7.23053L4.36131 8.76947ZM17.261 18.977L29.3086 16.3454L28.8818 14.3915L16.8342 17.023L17.261 18.977ZM29.7882 16.0894L37.4548 8.72099L36.069 7.27901L28.4023 14.6474L29.7882 16.0894ZM36.7619 9H51V7H36.7619V9Z" fill="#84DCCF"/>
</g>
<defs>
<filter id="filter0_d_165_711" x="0.361328" y="0.635986" width="55.6387" height="26.4451" filterUnits="userSpaceOnUse" color-interpolation-filters="sRGB">
<feFlood flood-opacity="0" result="BackgroundImageFix"/>
<feColorMatrix in="SourceAlpha" type="matrix" values="0 0 0 0 0 0 0 0 0 0 0 0 0 0 0 0 0 0 127 0" result="hardAlpha"/>
<feOffset dy="4"/>
<feGaussianBlur stdDeviation="2"/>
<feComposite in2="hardAlpha" operator="out"/>
<feColorMatrix type="matrix" values="0 0 0 0 0 0 0 0 0 0 0 0 0 0 0 0 0 0 0.25 0"/>
<feBlend mode="normal" in2="BackgroundImageFix" result="effect1_dropShadow_165_711"/>
<feBlend mode="normal" in="SourceGraphic" in2="effect1_dropShadow_165_711" result="shape"/>
</filter>
</defs>
</svg>
