<svg width="405" height="71" viewBox="0 0 405 71" fill="none" xmlns="http://www.w3.org/2000/svg">
<g filter="url(#filter0_di_280_726)">
<path d="M4 21.1641C4 9.47547 13.4755 0 25.1641 0H52.8708H356.211C380.947 0 401 20.0527 401 44.7891C401 54.8467 392.847 63 382.789 63H352.883H304.767H208.533H106.267H45.836C22.7306 63 4 44.2694 4 21.1641Z" fill="#84DCCF"/>
</g>
<path d="M49.7598 24.5259C49.5319 24.0018 49.361 23.7397 49.2471 23.7397C49.1104 23.7397 48.9053 24.1043 48.6318 24.8335L44.9746 33.1904L41.813 40.2314C41.7218 40.4479 41.6763 40.6359 41.6763 40.7954C41.6763 40.9663 41.7389 41.1201 41.8643 41.2568C42.001 41.3936 42.3143 41.5303 42.8042 41.667C43.2941 41.8037 43.6017 41.9404 43.7271 42.0771C43.8524 42.2139 43.915 42.3677 43.915 42.5386C43.915 43.0627 43.5732 43.3247 42.8896 43.3247C42.7301 43.3247 42.3371 43.2734 41.7104 43.1709C41.0952 43.0798 40.5825 43.0342 40.1724 43.0342C39.7508 43.0342 39.3179 43.0798 38.8735 43.1709C38.4292 43.262 38.1045 43.3076 37.8994 43.3076C37.6146 43.3076 37.381 43.2279 37.1987 43.0684C37.0164 42.9202 36.9253 42.7437 36.9253 42.5386C36.9253 42.2424 36.9823 42.0487 37.0962 41.9575C37.2101 41.8664 37.4209 41.798 37.7285 41.7524C38.6172 41.6043 39.2267 41.2739 39.5571 40.7612C39.8989 40.2371 40.7648 38.3971 42.1548 35.2412L46.2905 26.0127C47.3045 23.8024 47.9539 22.3384 48.2388 21.6206C48.535 20.8914 48.6831 20.3275 48.6831 19.9287C48.6831 19.792 48.6318 19.547 48.5293 19.1938C48.4382 18.8293 48.3926 18.5672 48.3926 18.4077C48.3926 18.0773 48.5692 17.9121 48.9224 17.9121C49.5034 17.9121 49.9705 18.1571 50.3237 18.647C50.6769 19.1369 51.1497 20.0597 51.7422 21.4155L56.4761 32.1138C58.1965 36.0103 59.2845 38.4199 59.7402 39.3428C60.196 40.2656 60.5662 40.8638 60.8511 41.1372C61.1473 41.3993 61.4948 41.5929 61.8936 41.7183C62.3037 41.8436 62.5828 41.9689 62.731 42.0942C62.8791 42.2082 62.9531 42.4076 62.9531 42.6924C62.9531 43.0798 62.5942 43.2734 61.8765 43.2734C61.6372 43.2734 61.1986 43.2393 60.5605 43.1709C59.9339 43.1025 59.3073 43.0684 58.6807 43.0684C58.054 43.0684 57.3989 43.1082 56.7153 43.188C56.0431 43.2677 55.5817 43.3076 55.3311 43.3076C54.9437 43.3076 54.6361 43.2393 54.4082 43.1025C54.1803 42.9772 54.0664 42.8006 54.0664 42.5728C54.0664 42.3791 54.1348 42.2196 54.2715 42.0942C54.4082 41.9689 54.7728 41.8778 55.3652 41.8208C55.9691 41.7638 56.3564 41.6385 56.5273 41.4448C56.7096 41.2397 56.8008 40.9891 56.8008 40.6929C56.8008 40.3739 56.4761 39.4966 55.8267 38.061C55.1772 36.6141 54.7728 35.8451 54.6133 35.7539C54.4538 35.6628 54.1462 35.6172 53.6904 35.6172H46.0513C45.755 35.6172 45.4873 35.526 45.248 35.3438C45.0088 35.1501 44.8892 34.9279 44.8892 34.6772C44.8892 34.4836 44.9803 34.3127 45.1626 34.1646C45.3563 34.0164 45.5728 33.9424 45.812 33.9424H53.1606C53.5708 33.9424 53.7759 33.8683 53.7759 33.7202C53.7759 33.6291 53.6961 33.4069 53.5366 33.0537L49.7598 24.5259ZM65.6704 45.7344C65.7388 45.085 65.7729 43.2848 65.7729 40.334C65.7729 38.9098 65.7388 36.8306 65.6704 34.0962C65.6476 33.8114 65.528 33.5664 65.3115 33.3613C65.1064 33.1449 64.6678 32.9797 63.9956 32.8657C63.4829 32.786 63.1468 32.6891 62.9873 32.5752C62.8392 32.4613 62.7651 32.3188 62.7651 32.1479C62.7651 31.7036 63.1183 31.4814 63.8247 31.4814C63.9614 31.4814 64.2975 31.5384 64.833 31.6523C65.3685 31.7549 65.7046 31.8062 65.8413 31.8062C65.9894 31.8062 66.297 31.7435 66.7642 31.6182C67.2313 31.4814 67.5218 31.4131 67.6357 31.4131C67.9434 31.4131 68.137 31.4814 68.2168 31.6182C68.2965 31.7549 68.3364 31.9657 68.3364 32.2505V38.2832C68.3364 39.5137 68.7238 40.4935 69.4985 41.2227C70.2733 41.9404 71.179 42.2993 72.2158 42.2993C72.7171 42.2993 73.3551 42.0828 74.1299 41.6499C74.916 41.2056 75.5256 40.5675 75.9585 39.7358C76.4028 38.9041 76.625 37.9642 76.625 36.916C76.625 35.6742 76.2433 34.569 75.48 33.6006C74.728 32.6322 73.8507 32.1479 72.8481 32.1479C72.2443 32.1479 71.686 32.2619 71.1733 32.4897C70.672 32.7062 70.3416 32.8145 70.1821 32.8145C70.0226 32.8145 69.8802 32.7632 69.7549 32.6606C69.6296 32.5581 69.5669 32.4328 69.5669 32.2847C69.5669 31.9543 69.9827 31.6182 70.8145 31.2764C71.6576 30.9232 72.381 30.7466 72.9849 30.7466C74.8306 30.7466 76.3743 31.3333 77.6162 32.5068C78.8695 33.6803 79.4961 35.2754 79.4961 37.292C79.4961 38.8529 78.8524 40.2884 77.5649 41.5986C76.2775 42.9089 74.728 43.564 72.9165 43.564C72.2215 43.564 71.5607 43.4728 70.9341 43.2905C70.3188 43.1082 69.5099 42.6867 68.5073 42.0259C68.4162 42.0259 68.3706 42.3164 68.3706 42.8975C68.3706 44.3444 68.2738 45.4438 68.0801 46.1958C67.8864 46.9591 67.556 47.62 67.0889 48.1782C66.6217 48.7365 66.1603 49.1296 65.7046 49.3574C65.2603 49.5967 64.8273 49.7163 64.4058 49.7163C63.7791 49.7163 63.4658 49.5682 63.4658 49.272C63.4658 49.1466 63.6082 49.0099 63.8931 48.8618C64.5767 48.4858 65.0438 47.9959 65.2944 47.3921C65.5451 46.7996 65.6704 46.2471 65.6704 45.7344ZM83.0337 45.7344C83.1021 45.085 83.1362 43.2848 83.1362 40.334C83.1362 38.9098 83.1021 36.8306 83.0337 34.0962C83.0109 33.8114 82.8913 33.5664 82.6748 33.3613C82.4697 33.1449 82.0311 32.9797 81.3589 32.8657C80.8462 32.786 80.5101 32.6891 80.3506 32.5752C80.2025 32.4613 80.1284 32.3188 80.1284 32.1479C80.1284 31.7036 80.4816 31.4814 81.188 31.4814C81.3247 31.4814 81.6608 31.5384 82.1963 31.6523C82.7318 31.7549 83.0679 31.8062 83.2046 31.8062C83.3527 31.8062 83.6603 31.7435 84.1274 31.6182C84.5946 31.4814 84.8851 31.4131 84.999 31.4131C85.3066 31.4131 85.5003 31.4814 85.5801 31.6182C85.6598 31.7549 85.6997 31.9657 85.6997 32.2505V38.2832C85.6997 39.5137 86.0871 40.4935 86.8618 41.2227C87.6366 41.9404 88.5423 42.2993 89.5791 42.2993C90.0804 42.2993 90.7184 42.0828 91.4932 41.6499C92.2793 41.2056 92.8888 40.5675 93.3218 39.7358C93.7661 38.9041 93.9883 37.9642 93.9883 36.916C93.9883 35.6742 93.6066 34.569 92.8433 33.6006C92.0913 32.6322 91.214 32.1479 90.2114 32.1479C89.6076 32.1479 89.0493 32.2619 88.5366 32.4897C88.0353 32.7062 87.7049 32.8145 87.5454 32.8145C87.3859 32.8145 87.2435 32.7632 87.1182 32.6606C86.9928 32.5581 86.9302 32.4328 86.9302 32.2847C86.9302 31.9543 87.346 31.6182 88.1777 31.2764C89.0208 30.9232 89.7443 30.7466 90.3481 30.7466C92.1938 30.7466 93.7376 31.3333 94.9795 32.5068C96.2327 33.6803 96.8594 35.2754 96.8594 37.292C96.8594 38.8529 96.2157 40.2884 94.9282 41.5986C93.6408 42.9089 92.0913 43.564 90.2798 43.564C89.5848 43.564 88.924 43.4728 88.2974 43.2905C87.6821 43.1082 86.8732 42.6867 85.8706 42.0259C85.7795 42.0259 85.7339 42.3164 85.7339 42.8975C85.7339 44.3444 85.637 45.4438 85.4434 46.1958C85.2497 46.9591 84.9193 47.62 84.4521 48.1782C83.985 48.7365 83.5236 49.1296 83.0679 49.3574C82.6235 49.5967 82.1906 49.7163 81.769 49.7163C81.1424 49.7163 80.8291 49.5682 80.8291 49.272C80.8291 49.1466 80.9715 49.0099 81.2563 48.8618C81.9399 48.4858 82.4071 47.9959 82.6577 47.3921C82.9084 46.7996 83.0337 46.2471 83.0337 45.7344ZM103.063 40.6929C103.063 41.0005 103.143 41.2625 103.302 41.479C103.462 41.6955 103.815 41.8493 104.362 41.9404C104.909 42.0316 105.239 42.1455 105.353 42.2822C105.478 42.4189 105.541 42.5898 105.541 42.7949C105.541 43.1595 105.262 43.3418 104.704 43.3418C104.362 43.3418 103.855 43.3019 103.183 43.2222C102.51 43.1424 102.003 43.1025 101.662 43.1025C101.343 43.1025 100.875 43.1424 100.26 43.2222C99.645 43.3019 99.1779 43.3418 98.8589 43.3418C98.4032 43.3418 98.1069 43.2905 97.9702 43.188C97.8449 43.0854 97.7822 42.943 97.7822 42.7607C97.7822 42.5785 97.8335 42.4246 97.936 42.2993C98.05 42.174 98.3918 42.0715 98.9614 41.9917C99.5425 41.9006 99.9185 41.7126 100.089 41.4277C100.272 41.1315 100.363 40.7897 100.363 40.4023V21.9624C100.363 21.5636 100.272 21.2161 100.089 20.9199C99.9071 20.6123 99.5311 20.3901 98.9614 20.2534C98.3918 20.1167 98.05 19.98 97.936 19.8433C97.8335 19.7065 97.7822 19.5527 97.7822 19.3818C97.7822 19.2109 97.8734 19.0742 98.0557 18.9717C98.2493 18.8691 98.4487 18.8179 98.6538 18.8179C98.8361 18.8179 99.1038 18.8521 99.457 18.9204C99.8216 18.9888 100.089 19.0229 100.26 19.0229C100.454 19.0229 100.744 18.9888 101.132 18.9204C101.519 18.8521 101.81 18.8179 102.003 18.8179C102.368 18.8179 102.636 18.9147 102.807 19.1084C102.978 19.3021 103.063 19.6496 103.063 20.1509V40.6929ZM120.05 31.4131C120.449 31.4131 120.648 31.6922 120.648 32.2505C120.648 33.3556 120.666 34.9678 120.7 37.0869C120.734 39.2061 120.751 40.6302 120.751 41.3594C120.751 43.9115 120.455 45.7344 119.862 46.8281C119.27 47.9333 118.632 48.7023 117.948 49.1353C117.276 49.5682 116.45 49.7847 115.47 49.7847C114.639 49.7847 113.978 49.665 113.488 49.4258C113.009 49.1865 112.77 48.9701 112.77 48.7764C112.77 48.6852 112.816 48.5827 112.907 48.4688C112.998 48.3662 113.106 48.3149 113.231 48.3149C113.323 48.3149 113.505 48.3719 113.778 48.4858C114.063 48.6112 114.382 48.6738 114.735 48.6738C115.373 48.6738 115.994 48.4574 116.598 48.0244C117.213 47.6029 117.606 47.0161 117.777 46.2642C117.96 45.5122 118.051 44.39 118.051 42.8975C118.051 37.5426 118.034 34.5633 118 33.9595C117.977 33.3556 117.555 32.991 116.735 32.8657C115.915 32.729 115.504 32.4556 115.504 32.0454C115.504 31.6239 115.795 31.4131 116.376 31.4131C116.57 31.4131 116.917 31.4473 117.418 31.5156C117.931 31.584 118.353 31.6182 118.683 31.6182C118.934 31.6182 119.196 31.584 119.469 31.5156C119.743 31.4473 119.936 31.4131 120.05 31.4131ZM116.872 40.9321C117.168 40.9321 117.316 41.0745 117.316 41.3594C117.316 41.7126 116.86 42.1512 115.949 42.6753C115.037 43.1994 114.132 43.4614 113.231 43.4614C112.616 43.4614 111.955 43.2563 111.249 42.8462C110.543 42.4246 110.098 41.9062 109.916 41.291C109.745 40.6644 109.66 39.5422 109.66 37.9243L109.694 34.4893C109.694 33.5664 109.284 33.0195 108.463 32.8486C107.985 32.7575 107.677 32.672 107.541 32.5923C107.415 32.5011 107.353 32.3302 107.353 32.0796C107.353 31.8973 107.404 31.7435 107.506 31.6182C107.609 31.4814 107.746 31.4131 107.917 31.4131C108.076 31.4131 108.401 31.4701 108.891 31.584C109.381 31.6865 109.694 31.7378 109.831 31.7378C109.99 31.7378 110.32 31.6865 110.822 31.584C111.323 31.4701 111.636 31.4131 111.762 31.4131C111.841 31.4131 111.938 31.453 112.052 31.5327C112.166 31.6125 112.229 31.6979 112.24 31.7891C112.263 31.8802 112.286 32.672 112.309 34.1646C112.343 35.6571 112.36 37.0299 112.36 38.2832C112.36 39.2402 112.394 39.9352 112.462 40.3682C112.531 40.7897 112.742 41.1372 113.095 41.4106C113.459 41.6727 113.938 41.8037 114.53 41.8037C114.975 41.8037 115.436 41.6613 115.915 41.3765C116.393 41.0802 116.712 40.9321 116.872 40.9321ZM142.37 40.1631C142.37 40.9834 142.917 41.5531 144.01 41.8721C144.284 41.9518 144.483 42.043 144.608 42.1455C144.745 42.248 144.813 42.4417 144.813 42.7266C144.813 42.8747 144.722 43 144.54 43.1025C144.369 43.2165 144.181 43.2734 143.976 43.2734C143.76 43.2734 143.463 43.2222 143.087 43.1196C142.723 43.0171 142.427 42.9658 142.199 42.9658C141.937 42.9658 141.606 43.0171 141.208 43.1196C140.809 43.2222 140.541 43.2734 140.404 43.2734C140.245 43.2734 140.085 43.2165 139.926 43.1025C139.778 42.9886 139.704 42.8747 139.704 42.7607C139.704 42.5785 139.647 42.4873 139.533 42.4873C139.453 42.4873 139.35 42.5272 139.225 42.6069C137.938 43.4045 136.548 43.8032 135.055 43.8032C134.349 43.8032 133.557 43.6209 132.68 43.2563C131.814 42.8918 131.119 42.3335 130.595 41.5815C130.071 40.8182 129.809 39.8783 129.809 38.7617C129.809 37.5768 130.373 36.5286 131.5 35.6172C132.64 34.7057 134.104 34.25 135.893 34.25C136.496 34.25 137.157 34.4209 137.875 34.7627C138.604 35.0931 138.969 35.4349 138.969 35.7881C138.969 35.959 138.895 36.0957 138.747 36.1982C138.598 36.3008 138.416 36.3521 138.2 36.3521C138.052 36.3521 137.761 36.2495 137.328 36.0444C136.895 35.828 136.451 35.7197 135.995 35.7197C135.061 35.7197 134.286 35.9989 133.671 36.5571C133.056 37.104 132.748 37.8389 132.748 38.7617C132.748 39.8327 133.101 40.6587 133.808 41.2397C134.514 41.8094 135.329 42.0942 136.251 42.0942C137.083 42.0942 137.847 41.8208 138.542 41.2739C139.248 40.7271 139.601 39.9979 139.601 39.0864V34.4551C139.601 33.7601 139.368 33.1961 138.9 32.7632C138.445 32.3302 137.829 32.1138 137.055 32.1138C136.063 32.1138 135.101 32.4271 134.167 33.0537C133.847 33.2702 133.631 33.3784 133.517 33.3784C133.244 33.3784 133.01 33.3101 132.816 33.1733C132.623 33.0252 132.526 32.8372 132.526 32.6094C132.526 32.0511 133.033 31.5783 134.047 31.1909C135.072 30.8035 136.189 30.6099 137.396 30.6099C138.889 30.6099 140.091 30.9858 141.002 31.7378C141.914 32.4897 142.37 33.3841 142.37 34.4209V40.1631ZM149.086 33.4126C149.086 33.6746 149.206 33.9424 149.445 34.2158C149.695 34.4893 150.482 34.9735 151.803 35.6685C153.125 36.3634 154.014 37.047 154.469 37.7192C154.936 38.38 155.17 39.0807 155.17 39.8213C155.17 40.972 154.686 41.8892 153.717 42.5728C152.76 43.2563 151.518 43.5981 149.992 43.5981C149.149 43.5981 148.306 43.4102 147.462 43.0342C146.631 42.6696 146.215 42.2993 146.215 41.9233C146.215 41.6157 146.192 41.2397 146.146 40.7954C146.101 40.3397 146.078 39.9751 146.078 39.7017C146.078 39.1434 146.334 38.8643 146.847 38.8643C146.995 38.8643 147.132 38.9269 147.257 39.0522C147.383 39.1776 147.582 39.5991 147.855 40.3169C148.129 41.0233 148.459 41.5075 148.847 41.7695C149.245 42.0316 149.69 42.1626 150.18 42.1626C150.784 42.1626 151.296 41.9632 151.718 41.5645C152.139 41.1657 152.35 40.653 152.35 40.0264C152.35 39.6162 152.208 39.2345 151.923 38.8813C151.638 38.5168 150.858 38.0326 149.582 37.4287C148.317 36.8249 147.491 36.2381 147.104 35.6685C146.728 35.0874 146.54 34.4608 146.54 33.7886C146.54 32.8999 146.95 32.1536 147.77 31.5498C148.602 30.946 149.564 30.644 150.658 30.644C151.57 30.644 152.458 30.8035 153.324 31.1226C154.19 31.4302 154.623 31.7606 154.623 32.1138C154.623 32.3302 154.646 32.598 154.691 32.917C154.737 33.236 154.76 33.4924 154.76 33.686C154.76 33.9253 154.697 34.1361 154.572 34.3184C154.458 34.5007 154.31 34.5918 154.127 34.5918C153.865 34.5918 153.677 34.5291 153.563 34.4038C153.461 34.2671 153.364 34.0335 153.273 33.7031C153.182 33.3727 153.034 33.1107 152.829 32.917C152.624 32.7233 152.35 32.5467 152.008 32.3872C151.667 32.2277 151.285 32.1479 150.863 32.1479C150.442 32.1479 150.037 32.2847 149.65 32.5581C149.274 32.8201 149.086 33.105 149.086 33.4126ZM171.593 18.3564C173.302 18.3564 175.222 18.8521 177.353 19.8433C179.494 20.8231 181.226 22.2928 182.548 24.2524C183.869 26.2121 184.53 28.4964 184.53 31.1055C184.53 34.6602 183.437 37.5825 181.249 39.8726C179.062 42.1626 176.225 43.3076 172.738 43.3076L163.048 43.2393C162.786 43.2393 162.564 43.1709 162.382 43.0342C162.2 42.9089 162.108 42.7323 162.108 42.5044C162.108 42.3107 162.171 42.1512 162.296 42.0259C162.422 41.9006 162.764 41.8094 163.322 41.7524C163.88 41.6841 164.233 41.5645 164.381 41.3936C164.541 41.2113 164.621 40.9891 164.621 40.7271V21.2959C164.621 20.7832 164.535 20.4129 164.364 20.1851C164.205 19.9572 164.028 19.8262 163.834 19.792C163.652 19.7464 163.293 19.7236 162.758 19.7236C162.427 19.7236 162.205 19.6724 162.091 19.5698C161.977 19.4559 161.92 19.285 161.92 19.0571C161.92 18.59 162.296 18.3564 163.048 18.3564H171.593ZM167.526 39.7871C167.526 40.4479 167.828 40.9549 168.432 41.3081C169.035 41.6613 170.146 41.8379 171.764 41.8379C173.519 41.8379 174.846 41.61 175.746 41.1543C177.273 40.3682 178.509 39.1206 179.455 37.4116C180.412 35.7026 180.89 33.9709 180.89 32.2163C180.89 30.701 180.759 29.2769 180.497 27.9438C180.246 26.5994 179.785 25.3918 179.113 24.3208C178.452 23.2384 177.449 22.2188 176.105 21.2617C174.761 20.3047 172.972 19.8262 170.739 19.8262C168.597 19.8262 167.526 20.2933 167.526 21.2275V39.7871ZM196.083 36.3862C196.345 36.3862 196.522 36.3407 196.613 36.2495C196.704 36.1584 196.75 35.9932 196.75 35.7539C196.75 34.8766 196.408 34.0563 195.724 33.293C195.052 32.5296 194.032 32.1479 192.665 32.1479C191.719 32.1479 190.74 32.598 189.726 33.498C188.723 34.3981 188.222 35.6742 188.222 37.3262C188.222 38.5339 188.751 39.6219 189.811 40.5903C190.882 41.5474 192.078 42.0259 193.4 42.0259C194.403 42.0259 195.485 41.7126 196.647 41.0859C197.091 40.8467 197.382 40.7271 197.519 40.7271C197.724 40.7271 197.883 40.784 197.997 40.8979C198.122 41.0119 198.185 41.1543 198.185 41.3252C198.185 41.7354 197.553 42.2424 196.288 42.8462C195.035 43.4386 193.742 43.7349 192.409 43.7349C190.438 43.7349 188.78 43.0627 187.436 41.7183C186.091 40.3739 185.419 38.7731 185.419 36.916C185.419 35.2184 186.154 33.7658 187.624 32.5581C189.105 31.3504 190.762 30.7466 192.597 30.7466C194.978 30.7466 196.761 31.3561 197.946 32.5752C199.131 33.7943 199.723 35.2526 199.723 36.9502C199.723 37.3148 199.632 37.5426 199.45 37.6338C199.267 37.7135 198.931 37.7534 198.441 37.7534H190.597C189.959 37.7534 189.64 37.5199 189.64 37.0527C189.64 36.6084 189.971 36.3862 190.631 36.3862H196.083ZM211.464 34.1816C211.589 33.9424 211.652 33.6746 211.652 33.3784C211.652 33.0366 211.447 32.8201 211.037 32.729C210.638 32.6265 210.37 32.5296 210.233 32.4385C210.097 32.3473 210.028 32.1821 210.028 31.9429C210.028 31.6466 210.102 31.4587 210.25 31.3789C210.399 31.2878 210.632 31.2422 210.951 31.2422C211.19 31.2422 211.487 31.2821 211.84 31.3618C212.193 31.4416 212.62 31.4814 213.122 31.4814C213.6 31.4814 214.05 31.4359 214.472 31.3447C214.905 31.2536 215.224 31.208 215.429 31.208C216.01 31.208 216.3 31.4074 216.3 31.8062C216.3 32.1024 216.255 32.2847 216.164 32.353C216.084 32.41 215.765 32.5011 215.207 32.6265C214.66 32.7404 214.284 32.8486 214.079 32.9512C213.874 33.0423 213.663 33.236 213.446 33.5322C213.241 33.8171 212.991 34.2671 212.694 34.8823L209.02 42.6582C208.997 42.7038 208.963 42.7892 208.917 42.9146C208.724 43.4159 208.49 43.6665 208.217 43.6665C207.978 43.6665 207.738 43.4159 207.499 42.9146L203.312 34.3184C203.084 33.8512 202.754 33.4696 202.321 33.1733C201.899 32.8657 201.506 32.7119 201.142 32.7119C200.743 32.7119 200.435 32.6436 200.219 32.5068C200.002 32.3587 199.894 32.1821 199.894 31.9771C199.894 31.5099 200.185 31.2764 200.766 31.2764C201.312 31.2764 201.854 31.3276 202.389 31.4302C202.925 31.5327 203.34 31.584 203.637 31.584C203.99 31.584 204.474 31.5327 205.089 31.4302C205.716 31.3276 206.177 31.2764 206.474 31.2764C206.884 31.2764 207.174 31.3333 207.345 31.4473C207.528 31.5498 207.619 31.7264 207.619 31.9771C207.619 32.1252 207.562 32.2562 207.448 32.3701C207.334 32.484 207.072 32.5866 206.662 32.6777C206.263 32.7689 206.012 32.86 205.91 32.9512C205.819 33.0423 205.773 33.1506 205.773 33.2759C205.773 33.3898 205.887 33.6917 206.115 34.1816L208.456 39.0864C208.581 39.3371 208.69 39.4624 208.781 39.4624C208.906 39.4624 209.043 39.2972 209.191 38.9668L211.464 34.1816ZM227.118 36.3862C227.38 36.3862 227.557 36.3407 227.648 36.2495C227.739 36.1584 227.785 35.9932 227.785 35.7539C227.785 34.8766 227.443 34.0563 226.759 33.293C226.087 32.5296 225.067 32.1479 223.7 32.1479C222.755 32.1479 221.775 32.598 220.761 33.498C219.758 34.3981 219.257 35.6742 219.257 37.3262C219.257 38.5339 219.787 39.6219 220.846 40.5903C221.917 41.5474 223.113 42.0259 224.435 42.0259C225.438 42.0259 226.52 41.7126 227.682 41.0859C228.126 40.8467 228.417 40.7271 228.554 40.7271C228.759 40.7271 228.918 40.784 229.032 40.8979C229.158 41.0119 229.22 41.1543 229.22 41.3252C229.22 41.7354 228.588 42.2424 227.323 42.8462C226.07 43.4386 224.777 43.7349 223.444 43.7349C221.473 43.7349 219.815 43.0627 218.471 41.7183C217.126 40.3739 216.454 38.7731 216.454 36.916C216.454 35.2184 217.189 33.7658 218.659 32.5581C220.14 31.3504 221.798 30.7466 223.632 30.7466C226.013 30.7466 227.796 31.3561 228.981 32.5752C230.166 33.7943 230.758 35.2526 230.758 36.9502C230.758 37.3148 230.667 37.5426 230.485 37.6338C230.303 37.7135 229.966 37.7534 229.477 37.7534H221.632C220.994 37.7534 220.675 37.5199 220.675 37.0527C220.675 36.6084 221.006 36.3862 221.667 36.3862H227.118ZM236.979 40.6929C236.979 41.0005 237.059 41.2625 237.218 41.479C237.378 41.6955 237.731 41.8493 238.278 41.9404C238.825 42.0316 239.155 42.1455 239.269 42.2822C239.394 42.4189 239.457 42.5898 239.457 42.7949C239.457 43.1595 239.178 43.3418 238.62 43.3418C238.278 43.3418 237.771 43.3019 237.099 43.2222C236.426 43.1424 235.919 43.1025 235.578 43.1025C235.259 43.1025 234.792 43.1424 234.176 43.2222C233.561 43.3019 233.094 43.3418 232.775 43.3418C232.319 43.3418 232.023 43.2905 231.886 43.188C231.761 43.0854 231.698 42.943 231.698 42.7607C231.698 42.5785 231.75 42.4246 231.852 42.2993C231.966 42.174 232.308 42.0715 232.877 41.9917C233.458 41.9006 233.834 41.7126 234.005 41.4277C234.188 41.1315 234.279 40.7897 234.279 40.4023V21.9624C234.279 21.5636 234.188 21.2161 234.005 20.9199C233.823 20.6123 233.447 20.3901 232.877 20.2534C232.308 20.1167 231.966 19.98 231.852 19.8433C231.75 19.7065 231.698 19.5527 231.698 19.3818C231.698 19.2109 231.789 19.0742 231.972 18.9717C232.165 18.8691 232.365 18.8179 232.57 18.8179C232.752 18.8179 233.02 18.8521 233.373 18.9204C233.738 18.9888 234.005 19.0229 234.176 19.0229C234.37 19.0229 234.66 18.9888 235.048 18.9204C235.435 18.8521 235.726 18.8179 235.919 18.8179C236.284 18.8179 236.552 18.9147 236.723 19.1084C236.894 19.3021 236.979 19.6496 236.979 20.1509V40.6929ZM248.48 30.7124C250.372 30.7124 252.018 31.3618 253.419 32.6606C254.832 33.9595 255.539 35.4577 255.539 37.1553C255.539 39.0579 254.866 40.6074 253.522 41.8037C252.178 43 250.377 43.5981 248.122 43.5981C246.344 43.5981 244.743 42.9886 243.319 41.7695C241.907 40.5505 241.2 39.0352 241.2 37.2236C241.2 35.4919 241.821 33.9766 243.063 32.6777C244.316 31.3675 246.122 30.7124 248.48 30.7124ZM248.515 42.0942C249.825 42.0942 250.867 41.6214 251.642 40.6758C252.428 39.7301 252.821 38.5339 252.821 37.0869C252.821 35.6628 252.4 34.495 251.557 33.5835C250.725 32.672 249.665 32.2163 248.378 32.2163C247.056 32.2163 246.031 32.6663 245.302 33.5664C244.573 34.4551 244.208 35.6058 244.208 37.0186C244.208 38.5794 244.612 39.8156 245.421 40.7271C246.23 41.6385 247.261 42.0942 248.515 42.0942ZM259.093 45.7344C259.162 45.085 259.196 43.2848 259.196 40.334C259.196 38.9098 259.162 36.8306 259.093 34.0962C259.07 33.8114 258.951 33.5664 258.734 33.3613C258.529 33.1449 258.091 32.9797 257.418 32.8657C256.906 32.786 256.57 32.6891 256.41 32.5752C256.262 32.4613 256.188 32.3188 256.188 32.1479C256.188 31.7036 256.541 31.4814 257.248 31.4814C257.384 31.4814 257.72 31.5384 258.256 31.6523C258.791 31.7549 259.127 31.8062 259.264 31.8062C259.412 31.8062 259.72 31.7435 260.187 31.6182C260.654 31.4814 260.945 31.4131 261.059 31.4131C261.366 31.4131 261.56 31.4814 261.64 31.6182C261.719 31.7549 261.759 31.9657 261.759 32.2505V38.2832C261.759 39.5137 262.147 40.4935 262.921 41.2227C263.696 41.9404 264.602 42.2993 265.639 42.2993C266.14 42.2993 266.778 42.0828 267.553 41.6499C268.339 41.2056 268.948 40.5675 269.381 39.7358C269.826 38.9041 270.048 37.9642 270.048 36.916C270.048 35.6742 269.666 34.569 268.903 33.6006C268.151 32.6322 267.274 32.1479 266.271 32.1479C265.667 32.1479 265.109 32.2619 264.596 32.4897C264.095 32.7062 263.764 32.8145 263.605 32.8145C263.445 32.8145 263.303 32.7632 263.178 32.6606C263.052 32.5581 262.99 32.4328 262.99 32.2847C262.99 31.9543 263.406 31.6182 264.237 31.2764C265.08 30.9232 265.804 30.7466 266.408 30.7466C268.253 30.7466 269.797 31.3333 271.039 32.5068C272.292 33.6803 272.919 35.2754 272.919 37.292C272.919 38.8529 272.275 40.2884 270.988 41.5986C269.7 42.9089 268.151 43.564 266.339 43.564C265.644 43.564 264.984 43.4728 264.357 43.2905C263.742 43.1082 262.933 42.6867 261.93 42.0259C261.839 42.0259 261.793 42.3164 261.793 42.8975C261.793 44.3444 261.697 45.4438 261.503 46.1958C261.309 46.9591 260.979 47.62 260.512 48.1782C260.045 48.7365 259.583 49.1296 259.127 49.3574C258.683 49.5967 258.25 49.7163 257.829 49.7163C257.202 49.7163 256.889 49.5682 256.889 49.272C256.889 49.1466 257.031 49.0099 257.316 48.8618C258 48.4858 258.467 47.9959 258.717 47.3921C258.968 46.7996 259.093 46.2471 259.093 45.7344ZM284.574 36.3862C284.836 36.3862 285.013 36.3407 285.104 36.2495C285.195 36.1584 285.241 35.9932 285.241 35.7539C285.241 34.8766 284.899 34.0563 284.215 33.293C283.543 32.5296 282.523 32.1479 281.156 32.1479C280.211 32.1479 279.231 32.598 278.217 33.498C277.214 34.3981 276.713 35.6742 276.713 37.3262C276.713 38.5339 277.243 39.6219 278.302 40.5903C279.373 41.5474 280.569 42.0259 281.891 42.0259C282.894 42.0259 283.976 41.7126 285.138 41.0859C285.583 40.8467 285.873 40.7271 286.01 40.7271C286.215 40.7271 286.374 40.784 286.488 40.8979C286.614 41.0119 286.676 41.1543 286.676 41.3252C286.676 41.7354 286.044 42.2424 284.779 42.8462C283.526 43.4386 282.233 43.7349 280.9 43.7349C278.929 43.7349 277.271 43.0627 275.927 41.7183C274.582 40.3739 273.91 38.7731 273.91 36.916C273.91 35.2184 274.645 33.7658 276.115 32.5581C277.596 31.3504 279.254 30.7466 281.088 30.7466C283.469 30.7466 285.252 31.3561 286.437 32.5752C287.622 33.7943 288.214 35.2526 288.214 36.9502C288.214 37.3148 288.123 37.5426 287.941 37.6338C287.759 37.7135 287.423 37.7534 286.933 37.7534H279.088C278.45 37.7534 278.131 37.5199 278.131 37.0527C278.131 36.6084 278.462 36.3862 279.123 36.3862H284.574ZM294.367 34.7798L294.435 35.2583C294.492 35.2583 294.76 34.7171 295.238 33.6348C295.717 32.5524 296.19 31.7834 296.657 31.3276C297.124 30.8719 297.608 30.644 298.109 30.644C298.497 30.644 298.787 30.7124 298.981 30.8491C299.186 30.9858 299.289 31.1396 299.289 31.3105C299.289 31.6068 299.22 31.846 299.083 32.0283C298.947 32.1992 298.708 32.4157 298.366 32.6777C296.919 33.7829 295.871 35.1273 295.221 36.7109C294.583 38.2946 294.264 39.6105 294.264 40.6587C294.264 41.1486 294.327 41.4847 294.452 41.667C294.589 41.8379 294.908 41.986 295.409 42.1113C295.91 42.2253 296.235 42.3506 296.383 42.4873C296.531 42.624 296.605 42.7835 296.605 42.9658C296.605 43.2962 296.406 43.4614 296.007 43.4614C295.688 43.4614 295.244 43.4045 294.674 43.2905C294.116 43.188 293.512 43.1367 292.863 43.1367C292.43 43.1367 291.991 43.188 291.547 43.2905C291.103 43.4045 290.818 43.4614 290.692 43.4614C290.373 43.4614 290.117 43.3988 289.923 43.2734C289.73 43.1595 289.633 43.0114 289.633 42.8291C289.633 42.6924 289.684 42.5728 289.787 42.4702C289.901 42.3563 290.208 42.2139 290.709 42.043C291.211 41.8721 291.518 41.7012 291.632 41.5303C291.746 41.3594 291.803 40.8239 291.803 39.9238V34.7114C291.803 34.381 291.723 34.0848 291.564 33.8228C291.416 33.5607 291.108 33.3613 290.641 33.2246C290.185 33.0765 289.912 32.9512 289.821 32.8486C289.741 32.7461 289.701 32.6322 289.701 32.5068C289.701 32.1309 289.969 31.9429 290.504 31.9429C290.653 31.9429 290.897 31.9714 291.239 32.0283C291.592 32.0853 291.837 32.1138 291.974 32.1138C292.088 32.1138 292.27 32.091 292.521 32.0454C292.783 31.9998 293.091 31.9771 293.444 31.9771C294.059 31.9771 294.367 32.6322 294.367 33.9424V34.7798Z" fill="#0E1C36"/>
<path d="M318.5 34H364.5M364.5 34L353.5 19M364.5 34L353.5 52.5" stroke="#312F2F" stroke-width="2"/>
<defs>
<filter id="filter0_di_280_726" x="0" y="0" width="405" height="71" filterUnits="userSpaceOnUse" color-interpolation-filters="sRGB">
<feFlood flood-opacity="0" result="BackgroundImageFix"/>
<feColorMatrix in="SourceAlpha" type="matrix" values="0 0 0 0 0 0 0 0 0 0 0 0 0 0 0 0 0 0 127 0" result="hardAlpha"/>
<feOffset dy="4"/>
<feGaussianBlur stdDeviation="2"/>
<feComposite in2="hardAlpha" operator="out"/>
<feColorMatrix type="matrix" values="0 0 0 0 0 0 0 0 0 0 0 0 0 0 0 0 0 0 0.25 0"/>
<feBlend mode="normal" in2="BackgroundImageFix" result="effect1_dropShadow_280_726"/>
<feBlend mode="normal" in="SourceGraphic" in2="effect1_dropShadow_280_726" result="shape"/>
<feColorMatrix in="SourceAlpha" type="matrix" values="0 0 0 0 0 0 0 0 0 0 0 0 0 0 0 0 0 0 127 0" result="hardAlpha"/>
<feOffset dy="4"/>
<feGaussianBlur stdDeviation="2"/>
<feComposite in2="hardAlpha" operator="arithmetic" k2="-1" k3="1"/>
<feColorMatrix type="matrix" values="0 0 0 0 0 0 0 0 0 0 0 0 0 0 0 0 0 0 0.25 0"/>
<feBlend mode="normal" in2="shape" result="effect2_innerShadow_280_726"/>
</filter>
</defs>
</svg>
